<svg xmlns="http://www.w3.org/2000/svg" fill="#f5c96b" height="800" width="800" viewBox="0 0 512 512" stroke="#f5c96b" xmlns:v="https://vecta.io/nano"><path d="M504.929 323.637a24.15 24.15 0 0 0-26.489-5.16c-26.922 11.403-55.471 17.185-84.859 17.185-58.032 0-112.586-22.597-153.618-63.63-62.92-62.918-81.149-156.525-46.442-238.474 3.835-9.057 1.793-19.534-5.162-26.487s-17.434-8.992-26.487-5.157c-31.495 13.343-59.788 32.433-84.093 56.74C27.616 108.815-.006 175.506 0 246.443.006 317.37 27.63 384.053 77.785 434.21 127.948 484.374 194.643 512 265.58 512c70.926 0 137.61-27.622 187.767-77.779 24.308-24.308 43.397-52.6 56.74-84.093a24.15 24.15 0 0 0-5.158-26.491z"/></svg>