<svg xmlns="http://www.w3.org/2000/svg" width="64" height="64" viewBox="0 0 24 24" fill="none" stroke="#ffea00" stroke-width=".288" transform="rotate(90)" xmlns:v="https://vecta.io/nano"><g clip-path="url(#A)" fill="#ffea00"><path d="M12 0a1 1 0 0 1 1 1v4a1 1 0 1 1-2 0V1a1 1 0 0 1 1-1zM4.929 3.515a1 1 0 0 0-1.414 1.414l2.828 2.828a1 1 0 0 0 1.414-1.414L4.93 3.515zM1 11a1 1 0 1 0 0 2h4a1 1 0 1 0 0-2H1zm17 1a1 1 0 0 1 1-1h4a1 1 0 1 1 0 2h-4a1 1 0 0 1-1-1zm-.343 4.243a1 1 0 0 0-1.414 1.414l2.828 2.828a1 1 0 1 0 1.414-1.414l-2.828-2.828zm-9.9 1.414a1 1 0 1 0-1.414-1.414L3.515 19.07a1 1 0 1 0 1.414 1.414l2.828-2.828zM20.485 4.929a1 1 0 0 0-1.414-1.414l-2.828 2.828a1 1 0 1 0 1.414 1.414l2.828-2.828zM13 19a1 1 0 1 0-2 0v4a1 1 0 1 0 2 0v-4zM12 7a5 5 0 1 0 0 10 5 5 0 0 0 0-10z"/></g><defs><clipPath id="A"><path fill="#fff" d="M0 0h24v24H0z"/></clipPath></defs></svg>